<?xml version="1.0" ?><!DOCTYPE svg  PUBLIC '-//W3C//DTD SVG 1.1//EN'  'http://www.w3.org/Graphics/SVG/1.1/DTD/svg11.dtd'><svg height="64px" style="enable-background:new 0 0 64 64;" version="1.1" viewBox="0 0 64 64" width="64px" xml:space="preserve" xmlns="http://www.w3.org/2000/svg" xmlns:xlink="http://www.w3.org/1999/xlink"><g id="Livello_5"><g><circle cx="33.874" cy="31.688" r="30.126" style="fill:#666666;"/><circle cx="30.126" cy="32.312" r="30.126" style="fill:#9B9B9B;"/><path d="M33,25h7.065l-0.562,6H33v23h-9V31h-5v-6h5.268c-0.029-2-0.01-4.146,0.164-6.133    c0.239-2.729,1.143-5.907,3.703-7.339c2.722-1.521,6.022-1.256,8.991-0.861c0.873,0.117,1.744,0.237,2.618,0.354    c0.429,0.057,0.858,0.1,1.286,0.164c-0.375,2.008-0.75,4.013-1.126,6.021c-0.035,0.192-0.082,0.395-0.142,0.576    c-0.973-0.431-2.273-0.575-3.335-0.62c-0.838-0.035-1.828-0.028-2.45,0.618c-0.43,0.446-0.781,1.086-0.936,1.683    c-0.22,0.839-0.097,1.727-0.115,2.586C32.907,22.928,33,23.807,33,24.688V25z" style="fill:#FFFFFF;"/></g></g><g id="Livello_1"/></svg>