<?xml version="1.0" ?><!DOCTYPE svg  PUBLIC '-//W3C//DTD SVG 1.1//EN'  'http://www.w3.org/Graphics/SVG/1.1/DTD/svg11.dtd'><svg height="64px" style="enable-background:new 0 0 64 64;" version="1.1" viewBox="0 0 64 64" width="64px" xml:space="preserve" xmlns="http://www.w3.org/2000/svg" xmlns:xlink="http://www.w3.org/1999/xlink"><g id="Livello_8"><g><circle cx="33.874" cy="31.688" r="30.126" style="fill:#666666;"/><circle cx="30.126" cy="32.312" r="30.126" style="fill:#9B9B9B;"/><g><path d="M21.979,10.352c-6.391,0.49-10.982,5.811-10.314,11.231c0.619,5.021,5.558,8.616,11.342,8.493     c-0.111,0.002-0.405,1.042-0.441,1.171c-0.142,0.491-0.236,1.011-0.155,1.521c0.173,1.08,1.072,2.091,1.698,2.949     c0.01,0.013,0.012,0.024,0.012,0.038c-0.31,0-0.618-0.037-0.933-0.037c-8.097,0-14.66,4.176-14.66,9.34     c0,5.163,6.563,9.346,14.66,9.346c2.378,0,4.813-0.341,7.051-1.158c1.886-0.689,3.861-1.595,5.266-3.069     c0.73-0.768,1.526-1.838,1.888-2.844c0.378-1.052,0.501-2.21,0.447-3.355c-0.035-0.731-0.142-1.458-0.301-2.149     c-0.439-1.919-1.645-3.658-3.112-4.942c-0.963-0.843-1.943-1.669-2.967-2.437c-0.872-0.653-1.788-1.213-2.467-2.087     c-0.646-0.828-0.788-1.605-0.3-2.555c0.778-1.511,2.3-2.45,3.442-3.639c1.171-1.215,2.069-2.845,2.442-4.492     c0.213-0.937,0.251-1.979,0.134-2.933c-0.278-2.257-1.431-4.227-3.14-5.699h3.204l2.621-2.824L21.979,10.352z M17.436,22.504     c-1.677-4.193-0.461-8.623,2.716-9.893c3.176-1.271,7.111,1.101,8.787,5.294c1.432,3.58,0.755,7.331-1.45,9.143     c-0.378,0.311-0.801,0.565-1.266,0.75c-0.635,0.255-1.301,0.363-1.973,0.34C21.563,28.047,18.776,25.859,17.436,22.504z      M33.271,44.689v0.024l-0.017-0.016V44.7l0.014,0.014c-0.083,3.925-4.387,7.087-9.687,7.087c-5.352,0-9.688-3.225-9.688-7.203     s4.337-7.203,9.688-7.203c0.771,0,1.521,0.066,2.242,0.194l0.021,0.02c0.004,0.001,0.008,0.001,0.012,0.001l-0.035-0.033     l-0.008-0.008v-0.001l0.017-0.002c0-0.002,0.001-0.002,0.001-0.002h0.001l0.006,0.004l0.001-0.001c0,0,0.001-0.003,0.002-0.003     h0.001c0.01,0,0.016,0.018,0.024,0.02c0.09,0.016,0.178,0.033,0.266,0.051c0.177,0.035,0.351,0.075,0.522,0.118     c0.259,0.063,0.512,0.137,0.76,0.215c0.164,0.054,0.328,0.11,0.487,0.169c0.241,0.09,0.477,0.188,0.705,0.292     c0.153,0.068,0.302,0.14,0.448,0.214c0.294,0.151,0.576,0.313,0.846,0.486c0.063,0.041,0.124,0.081,0.187,0.123     c0.062,0.041,0.123,0.084,0.184,0.126c0.082,0.059,0.163,0.115,0.242,0.176c0.022,0.016,0.045,0.045,0.065,0.045h0.002     c0.019,0,0.039,0.036,0.059,0.053c0.678,0.534,1.247,1.151,1.682,1.82c0.004,0.005,0.006,0.014,0.009,0.02     c0.024,0.039,0.05,0.081,0.074,0.12c0.061,0.098,0.117,0.197,0.171,0.298c0.011,0.021,0.022,0.043,0.033,0.065     c0.011,0.021,0.021,0.044,0.032,0.065c0.023,0.047,0.067,0.093,0.067,0.14v0.001l-0.002,0.002c0.018,0.03,0.029,0.063,0.04,0.098     c0.032,0.043,0.057,0.09,0.073,0.141c0.027,0.062,0.056,0.126,0.08,0.19c0.021,0.056,0.043,0.113,0.062,0.171     c0.014,0.041,0.029,0.082,0.041,0.124c-0.014-0.042-0.028-0.083-0.043-0.124c-0.02-0.058-0.041-0.115-0.062-0.171     c-0.024-0.063-0.052-0.126-0.079-0.188c0.008,0.025,0.014,0.052,0.018,0.078c0.019,0.036,0.035,0.073,0.05,0.11     c0.021,0.056,0.05,0.113,0.069,0.171c0.014,0.041,0.031,0.082,0.044,0.124c0.017,0.05,0.033,0.099,0.048,0.147     c0.027,0.094,0.053,0.188,0.075,0.281c0.003,0.008,0.004,0.014,0.005,0.021c0.013,0.051,0.024,0.1,0.033,0.15     c0.01,0.048,0.02,0.097,0.027,0.144c0.006,0.028,0.01,0.057,0.015,0.085c0.006,0.031,0.011,0.065,0.015,0.099     c0.007,0.047,0.014,0.095,0.02,0.142c0.004,0.047,0.009,0.092,0.014,0.139c0.005,0.061,0.01,0.12,0.012,0.182     c0.004,0.049,0.006,0.096,0.007,0.145c0.001,0.052,0.003,0.105,0.003,0.158c0,0.029,0.001,0.06-0.002,0.091     C33.271,44.689,33.271,44.689,33.271,44.689z" style="fill:#FFFFFF;"/><polygon points="52,28 52,31 46,31 46,36 43,36 43,31 39,31 39,28 43,28 43,23 46,23 46,28    " style="fill:#FFFFFF;"/></g></g></g><g id="Livello_1"/></svg>