<?xml version="1.0" ?><!DOCTYPE svg  PUBLIC '-//W3C//DTD SVG 1.1//EN'  'http://www.w3.org/Graphics/SVG/1.1/DTD/svg11.dtd'><svg height="64px" style="enable-background:new 0 0 64 64;" version="1.1" viewBox="0 0 64 64" width="64px" xml:space="preserve" xmlns="http://www.w3.org/2000/svg" xmlns:xlink="http://www.w3.org/1999/xlink"><g id="Livello_12"><g><circle cx="33.874" cy="31.688" r="30.126" style="fill:#666666;"/><circle cx="30.126" cy="32.312" r="30.126" style="fill:#9B9B9B;"/><g><g><path d="M41.402,32.643c0,5.976-4.849,10.896-10.824,10.896c-5.977,0-10.818-4.866-10.818-10.843      c0-2.628,0.936-4.608,2.495-7.009H9.595v21.602c0,3.301,2.7,6.001,6,6.001h28.802c0.061,0,0.12,0,0.175-0.006      c0.114-0.006,0.228,0.004,0.335-0.008c0.012-0.001,0.022,0.014,0.033,0.014c-0.002,0-0.003,0-0.005,0      c0.005,0,0.009-0.018,0.013-0.019c-0.003,0.001-0.005-0.007-0.008-0.007c0.021-0.002,0.043-0.01,0.064-0.012      c0.074-0.007,0.15-0.015,0.221-0.026c0.031-0.006,0.06-0.014,0.091-0.019c0.155-0.024,0.309-0.056,0.461-0.092      c-0.08,0.019-0.164,0.031-0.245,0.048c0.088-0.018,0.179-0.032,0.265-0.053c-0.006,0.001-0.013,0.003-0.02,0.004      c0.02-0.004,0.041-0.007,0.061-0.012c0.007-0.001,0.013-0.004,0.019-0.006c-0.002,0.001-0.004,0.002-0.007,0.002      c0.194-0.053,0.382-0.105,0.564-0.17c-0.18,0.063-0.365,0.115-0.558,0.168c0.349-0.087,0.687-0.203,1.008-0.35      c0.004-0.002,0.008-0.003,0.012-0.005c0.005-0.002,0.01-0.005,0.016-0.008c-0.002,0.001-0.003,0.002-0.005,0.003      c0.037-0.019,0.072-0.038,0.109-0.057c-0.036,0.018-0.068,0.036-0.104,0.054c0.489-0.226,0.942-0.516,1.351-0.859      c0.017-0.014,0.032-0.028,0.048-0.042c0.082-0.069,0.164-0.139,0.242-0.213c0.045-0.042,0.081-0.091,0.124-0.134      c0.088-0.088,0.172-0.178,0.254-0.271c0.038-0.045,0.083-0.083,0.12-0.129c0.064-0.079,0.123-0.159,0.183-0.238      c0.023-0.03,0.046-0.061,0.068-0.092c0.055-0.072,0.106-0.146,0.157-0.223c0.064-0.104,0.129-0.212,0.19-0.32      c0.016-0.027,0.029-0.055,0.044-0.082c0.05-0.093,0.098-0.185,0.144-0.281c0.045-0.091,0.084-0.184,0.123-0.277      c0.011-0.025,0.024-0.05,0.034-0.076c0.062-0.154,0.119-0.31,0.167-0.469c0.016-0.05,0.024-0.101,0.038-0.151      c0.016-0.054,0.028-0.108,0.042-0.163c0.013-0.051,0.029-0.103,0.039-0.153c0.03-0.12,0.048-0.24,0.066-0.36      c0.006-0.036,0.011-0.074,0.017-0.112c0.002-0.014,0.005-0.026,0.006-0.04c0.005-0.029,0.009-0.059,0.014-0.088      c0.012-0.096,0.018-0.191,0.024-0.294c0.006-0.126,0.012-0.252,0.012-0.378V46.51c0,1.248-0.246,2.401-0.71,3.39      c0.464-0.989,0.71-2.143,0.71-3.39V25.688H38.9C40.461,28.088,41.402,30.014,41.402,32.643z" style="fill:#FFFFFF;"/><path d="M23.144,39.062c1.788,2.112,4.458,3.45,7.429,3.45c5.395,0,9.756-4.374,9.756-9.756      c0-2.7-1.092-5.148-2.874-6.919c-0.054-0.054-0.107-0.107-0.161-0.15c-0.108-0.107-0.217-0.203-0.324-0.3      c-0.114-0.107-0.234-0.204-0.36-0.3c-0.03-0.024-0.066-0.054-0.096-0.078c-0.024-0.012-0.042-0.036-0.061-0.048      c-0.09-0.072-0.186-0.139-0.282-0.21c-1.583-1.098-3.51-1.753-5.598-1.753c-2.196,0-4.23,0.732-5.869,1.963      c-0.018,0.012-0.035,0.036-0.06,0.048c-0.029,0.024-0.066,0.054-0.096,0.078c-0.24,0.186-0.469,0.384-0.685,0.6      c-0.054,0.043-0.108,0.097-0.162,0.15c-1.781,1.771-2.88,4.219-2.88,6.919c0,2.202,0.732,4.235,1.969,5.867      C22.903,38.774,23.018,38.919,23.144,39.062z M26.006,28.154c0.204-0.204,0.432-0.402,0.672-0.582      c1.08-0.816,2.437-1.309,3.895-1.309c1.194,0,2.316,0.324,3.276,0.895c0.222,0.12,0.432,0.264,0.636,0.414      c0.048,0.036,0.103,0.077,0.15,0.126c0.18,0.138,0.359,0.294,0.521,0.456c1.176,1.176,1.908,2.802,1.908,4.603      c0,3.582-2.898,6.485-6.492,6.485c-2.064,0-3.912-0.972-5.095-2.483c-0.138-0.168-0.264-0.349-0.378-0.528      c-0.636-1.002-1.008-2.196-1.008-3.474C24.092,30.956,24.823,29.33,26.006,28.154z" style="fill:#FFFFFF;"/><path d="M50.367,17.876c-0.002-0.018-0.005-0.035-0.008-0.053c0-0.008-0.002-0.016-0.003-0.024      c-0.015-0.116-0.029-0.231-0.05-0.35c-0.015-0.08-0.031-0.158-0.05-0.237c-0.009-0.038-0.019-0.075-0.027-0.113      c-0.021-0.091-0.043-0.183-0.072-0.273c-0.024-0.09-0.054-0.18-0.084-0.27l-0.001-0.003c-0.002-0.006-0.004-0.012-0.007-0.017      c-0.029-0.096-0.067-0.191-0.106-0.287c-0.042-0.102-0.084-0.197-0.132-0.294c-0.03-0.077-0.065-0.156-0.107-0.228      c-0.037-0.072-0.078-0.145-0.12-0.216c-0.024-0.043-0.049-0.084-0.072-0.126c-0.288-0.517-0.648-0.979-1.068-1.363      c-0.342-0.323-0.727-0.6-1.152-0.821c-0.324-0.172-0.676-0.302-1.04-0.412c-0.03-0.01-0.058-0.022-0.088-0.032      c-0.052-0.015-0.104-0.026-0.154-0.041c-0.041-0.011-0.079-0.026-0.122-0.036c-0.041-0.013-0.083-0.019-0.126-0.031      c-0.007-0.001-0.015-0.003-0.021-0.004c-0.009-0.003-0.018-0.005-0.026-0.008c-0.048-0.006-0.096-0.018-0.144-0.029      c-0.185-0.037-0.372-0.064-0.562-0.084c-0.064-0.007-0.131-0.014-0.193-0.019c-0.084-0.006-0.168-0.012-0.258-0.012      c-0.055-0.006-0.114-0.006-0.175-0.006h-0.18H20.995h-1.8h-0.6h-1.801h-0.6h-0.601c-0.407,0-0.81,0.042-1.2,0.12      c-0.203,0.041-0.401,0.096-0.6,0.155c-0.654,0.21-1.26,0.528-1.8,0.931c-0.15,0.114-0.294,0.234-0.426,0.36      c-0.005,0.004-0.01,0.009-0.015,0.013c-0.05,0.046-0.099,0.092-0.146,0.139c-0.017,0.016-0.034,0.031-0.049,0.046      c-0.066,0.066-0.133,0.138-0.198,0.21c-0.016,0.018-0.029,0.036-0.044,0.054c-0.085,0.095-0.165,0.193-0.243,0.294      c-0.071,0.089-0.141,0.181-0.206,0.274c-0.055,0.079-0.106,0.16-0.158,0.242c-0.037,0.061-0.081,0.117-0.117,0.181      c-0.041,0.076-0.081,0.152-0.122,0.229c-0.014,0.026-0.026,0.052-0.039,0.077c-0.037,0.072-0.072,0.145-0.108,0.222      c-0.038,0.084-0.069,0.172-0.104,0.258c-0.021,0.056-0.045,0.108-0.065,0.164c-0.063,0.177-0.121,0.355-0.167,0.538      c-0.004,0.014-0.008,0.028-0.012,0.042c-0.004,0.018-0.01,0.035-0.014,0.053c-0.007,0.028-0.015,0.057-0.022,0.085      c-0.013,0.066-0.03,0.139-0.043,0.211c-0.012,0.061-0.013,0.122-0.021,0.183c-0.021,0.133-0.037,0.265-0.049,0.399      c-0.004,0.054-0.017,0.106-0.02,0.162c-0.006,0.119-0.012,0.239-0.012,0.359v6.601h2.4h1.8h0.6h1.801h0.6h1.801h0.6h1.8h2.076      c1.944-1.8,4.591-3.036,7.501-3.036c2.334,0,4.488,0.786,6.252,2.021c0.288,0.198,0.564,0.409,0.828,0.637      c0.15,0.12,0.294,0.246,0.433,0.378h12.312v-6.091v-0.51C50.397,18.283,50.386,18.08,50.367,17.876z M49.197,22.304      c0,1.206-0.979,2.185-2.184,2.185H41.78c-1.056,0-1.932-0.745-2.142-1.741c-0.024-0.144-0.042-0.293-0.042-0.443v-5.232      c0-1.206,0.978-2.184,2.184-2.184h5.233c0.174,0,0.348,0.023,0.51,0.06c0.959,0.234,1.674,1.092,1.674,2.124V22.304z" style="fill:#FFFFFF;"/></g><g><path d="M39.639,22.747c-0.024-0.144-0.042-0.293-0.042-0.443v-5.232c0-1.206,0.978-2.184,2.184-2.184      h5.233c0.174,0,0.348,0.023,0.51,0.06c0.959,0.234,1.674,1.092,1.674,2.124v5.232c0,1.206-0.979,2.185-2.184,2.185H41.78      C40.725,24.488,39.849,23.743,39.639,22.747z" style="fill:#9B9B9B;"/><path d="M35.156,28.154c1.176,1.176,1.908,2.802,1.908,4.603c0,3.582-2.898,6.485-6.492,6.485      c-2.064,0-3.912-0.972-5.095-2.483c-0.138-0.168-0.264-0.349-0.378-0.528c-0.636-1.002-1.008-2.196-1.008-3.474      c0-1.801,0.731-3.427,1.914-4.603c0.204-0.204,0.432-0.402,0.672-0.582c1.08-0.816,2.437-1.309,3.895-1.309      c1.194,0,2.316,0.324,3.276,0.895c0.222,0.12,0.432,0.264,0.636,0.414c0.048,0.036,0.103,0.077,0.15,0.126      C34.814,27.836,34.994,27.992,35.156,28.154z" style="fill:#9B9B9B;"/><path d="M50.397,25.088H38.085c-0.139-0.132-0.282-0.258-0.433-0.378      c-0.264-0.228-0.54-0.438-0.828-0.637c-1.764-1.235-3.918-2.021-6.252-2.021c-2.91,0-5.557,1.236-7.501,3.036H9.595v0.6h12.66      c-1.56,2.4-2.495,4.381-2.495,7.009c0,5.977,4.842,10.843,10.818,10.843c5.976,0,10.824-4.921,10.824-10.896      c0-2.629-0.941-4.555-2.502-6.955h11.497V25.088z M40.328,32.757c0,5.382-4.361,9.756-9.756,9.756      c-2.971,0-5.641-1.338-7.429-3.45c-0.126-0.144-0.24-0.288-0.354-0.438c-1.236-1.632-1.969-3.665-1.969-5.867      c0-2.7,1.099-5.148,2.88-6.919c0.054-0.054,0.108-0.107,0.162-0.15c0.216-0.216,0.444-0.414,0.685-0.6      c0.029-0.024,0.066-0.054,0.096-0.078c0.024-0.012,0.042-0.036,0.06-0.048c1.639-1.23,3.673-1.963,5.869-1.963      c2.088,0,4.015,0.655,5.598,1.753c0.097,0.071,0.192,0.138,0.282,0.21c0.019,0.012,0.036,0.036,0.061,0.048      c0.029,0.024,0.065,0.054,0.096,0.078c0.126,0.096,0.246,0.192,0.36,0.3c0.107,0.097,0.216,0.192,0.324,0.3      c0.054,0.043,0.107,0.097,0.161,0.15C39.236,27.608,40.328,30.057,40.328,32.757z" style="fill:#9B9B9B;"/><rect height="12.601" style="fill:#9B9B9B;" width="1.2" x="11.395" y="12.487"/><rect height="12.601" style="fill:#9B9B9B;" width="1.2" x="14.395" y="12.487"/><rect height="12.601" style="fill:#9B9B9B;" width="1.2" x="17.396" y="12.487"/></g></g></g></g><g id="Livello_1"/></svg>