<?xml version="1.0" ?><!DOCTYPE svg  PUBLIC '-//W3C//DTD SVG 1.1//EN'  'http://www.w3.org/Graphics/SVG/1.1/DTD/svg11.dtd'><svg height="64px" style="enable-background:new 0 0 64 64;" version="1.1" viewBox="0 0 64 64" width="64px" xml:space="preserve" xmlns="http://www.w3.org/2000/svg" xmlns:xlink="http://www.w3.org/1999/xlink"><g id="Livello_4"><g><circle cx="33.874" cy="31.688" r="30.126" style="fill:#666666;"/><circle cx="30.126" cy="32.312" r="30.126" style="fill:#9B9B9B;"/><path d="M53.601,17.617c-0.354,0.255-1.335,0.478-1.584,0.561c-0.629,0.21-1.269,0.397-1.91,0.56    c-0.365,0.093-1.572,0.505-1.922,0.283c2.101-1.289,3.394-3.037,4.26-5.374c-0.07,0.042-2.352,1.438-6.226,2.34    c-1.794-1.882-4.345-3.057-7.176-3.057c-5.429,0-9.829,4.322-9.829,9.651c0,0.777,0.094,1.531,0.271,2.254    c-1.729-0.221-3.467-0.272-5.15-0.706c-0.56-0.145-1.113-0.303-1.658-0.475c-1.524-0.48-2.99-1.091-4.349-1.778    c-5.312-2.69-8.885-7.154-8.926-7.216c-0.852,1.437-1.348,3.148-1.348,5.002c0,3.181,1.861,6.254,4.367,8.043    c-1.581,0-4.281-1.239-4.364-1.275l-0.003,0.014c-0.087,6.476,4.728,8.88,6.802,9.58c0.032,0.012,0.064,0.021,0.096,0.032    c0.062,0.021,0.125,0.04,0.183,0.059c0.061,0.019,0.117,0.035,0.17,0.05c0.055,0,0.107,0.041,0.152,0.055    c0.016,0.005,0.029,0.018,0.043,0.021c0.019,0.005,0.038,0.009,0.056,0.015c0.063,0.018,0.117,0.031,0.155,0.04    c-2.034,0.303-3.923,0.045-4.228-0.001c-0.007-0.001-0.004-0.004-0.008-0.005c-0.003-0.001-0.006-0.002-0.006-0.002    c-0.004,0.007-0.009,0.022-0.007,0.029c0.818,2.447,2.146,4.05,3.551,5.067c0.006,0.004,0.01,0.007,0.016,0.011    c0.041,0.031,0.081,0.062,0.122,0.092c0.004,0.004,0.006,0.008,0.01,0.008c0.026,0.02,0.055,0.038,0.08,0.056    c2.397,1.718,4.819,1.704,5.192,1.689c-3.369,2.883-7.827,4.027-12.179,4.106c-0.54,0.011-1.087-0.004-1.628-0.054    c-0.003,0.034-0.009,0.068-0.019,0.102c3.979,1.445,8.005,3.193,12.17,3.979c1.02,0.191,2.056,0.31,3.095,0.319    c3.433,0.031,6.862-0.357,10.056-1.673c9.887-4.075,14.953-13.581,16.552-23.767c0.286-1.815,0.057-3.181,1.469-4.504    c1.348-1.264,2.827-2.446,3.696-4.118C53.631,17.627,53.614,17.624,53.601,17.617z" style="fill:#FFFFFF;"/></g></g><g id="Livello_1"/></svg>